HIERARCHY
ROOT hip
{
  OFFSET 0 0 0
  CHANNELS 6 Xposition Yposition Zposition Zrotation Yrotation Xrotation
  JOINT abdomen
  {
    OFFSET 0 20.6881 -0.73152
    CHANNELS 3 Zrotation Xrotation Yrotation
    JOINT chest
    {
      OFFSET 0 11.7043 -0.48768
      CHANNELS 3 Zrotation Xrotation Yrotation
      JOINT neck
      {
        OFFSET 0 22.1894 -2.19456
        CHANNELS 3 Zrotation Xrotation Yrotation
        JOINT head
        {
          OFFSET -0.24384 7.07133 1.2192
          CHANNELS 3 Zrotation Xrotation Yrotation
          JOINT leftEye
          {
            OFFSET 4.14528 8.04674 8.04672
            CHANNELS 3 Zrotation Xrotation Yrotation
            End Site
            {
              OFFSET 1 0 0
            }
          }
          JOINT rightEye
          {
            OFFSET -3.6576 8.04674 8.04672
            CHANNELS 3 Zrotation Xrotation Yrotation
            End Site
            {
              OFFSET 1 0 0
            }
          }
        }
      }
      JOINT rCollar
      {
        OFFSET -2.68224 19.2634 -4.8768
        CHANNELS 3 Zrotation Xrotation Yrotation
        JOINT rShldr
        {
          OFFSET -8.77824 -1.95073 1.46304
          CHANNELS 3 Zrotation Xrotation Yrotation
          JOINT rForeArm
          {
            OFFSET -28.1742 -1.7115 0.48768
            CHANNELS 3 Zrotation Xrotation Yrotation
            JOINT rHand
            {
              OFFSET -22.5879 0.773209 7.07136
              CHANNELS 3 Zrotation Xrotation Yrotation
              JOINT rThumb1
              {
                OFFSET -1.2192 -0.487915 3.41376
                CHANNELS 3 Zrotation Xrotation Yrotation
                JOINT rThumb2
                {
                  OFFSET -3.37035 -0.52449 3.41376
                  CHANNELS 3 Zrotation Xrotation Yrotation
                  End Site
                  {
                    OFFSET -1.78271 -1.18214 1.43049
                  }
                }
              }
              JOINT rIndex1
              {
                OFFSET -7.75947 0.938293 5.60832
                CHANNELS 3 Zrotation Xrotation Yrotation
                JOINT rIndex2
                {
                  OFFSET -2.54057 -0.884171 1.56538
                  CHANNELS 3 Zrotation Xrotation Yrotation
                  End Site
                  {
                    OFFSET -1.62519 -0.234802 1.16502
                  }
                }
              }
              JOINT rMid1
              {
                OFFSET -8.24714 1.18213 3.41376
                CHANNELS 3 Zrotation Xrotation Yrotation
                JOINT rMid2
                {
                  OFFSET -3.10165 -0.590103 1.0647
                  CHANNELS 3 Zrotation Xrotation Yrotation
                  End Site
                  {
                    OFFSET -2.48547 -0.328903 0.83742
                  }
                }
              }
              JOINT rRing1
              {
                OFFSET -8.82822 0.546677 1.51678
                CHANNELS 3 Zrotation Xrotation Yrotation
                JOINT rRing2
                {
                  OFFSET -2.60934 -0.819778 -0.0198488
                  CHANNELS 3 Zrotation Xrotation Yrotation
                  End Site
                  {
                    OFFSET -2.33842 -0.294052 0.168128
                  }
                }
              }
              JOINT rPinky1
              {
                OFFSET -8.27202 -0.0477905 -0.4584
                CHANNELS 3 Zrotation Xrotation Yrotation
                JOINT rPinky2
                {
                  OFFSET -1.82734 -0.647385 -0.700984
                  CHANNELS 3 Zrotation Xrotation Yrotation
                  End Site
                  {
                    OFFSET -1.69225 -0.51767 -0.607171
                  }
                }
              }
            }
          }
        }
      }
      JOINT lCollar
      {
        OFFSET 2.68224 19.2634 -4.8768
        CHANNELS 3 Zrotation Xrotation Yrotation
        JOINT lShldr
        {
          OFFSET 8.77824 -1.95073 1.46304
          CHANNELS 3 Zrotation Xrotation Yrotation
          JOINT lForeArm
          {
            OFFSET 28.1742 -1.7115 0.48768
            CHANNELS 3 Zrotation Xrotation Yrotation
            JOINT lHand
            {
              OFFSET 22.5879 0.773209 7.07136
              CHANNELS 3 Zrotation Xrotation Yrotation
              JOINT lThumb1
              {
                OFFSET 1.2192 -0.487915 3.41376
                CHANNELS 3 Zrotation Xrotation Yrotation
                JOINT lThumb2
                {
                  OFFSET 3.37035 -0.52449 3.41376
                  CHANNELS 3 Zrotation Xrotation Yrotation
                  End Site
                  {
                    OFFSET 1.78271 -1.18214 1.43049
                  }
                }
              }
              JOINT lIndex1
              {
                OFFSET 7.75947 0.938293 5.60832
                CHANNELS 3 Zrotation Xrotation Yrotation
                JOINT lIndex2
                {
                  OFFSET 2.54057 -0.884171 1.56538
                  CHANNELS 3 Zrotation Xrotation Yrotation
                  End Site
                  {
                    OFFSET 1.62519 -0.234802 1.16502
                  }
                }
              }
              JOINT lMid1
              {
                OFFSET 8.24714 1.18213 3.41376
                CHANNELS 3 Zrotation Xrotation Yrotation
                JOINT lMid2
                {
                  OFFSET 3.10165 -0.590103 1.0647
                  CHANNELS 3 Zrotation Xrotation Yrotation
                  End Site
                  {
                    OFFSET 2.48547 -0.328903 0.83742
                  }
                }
              }
              JOINT lRing1
              {
                OFFSET 8.82822 0.546677 1.51678
                CHANNELS 3 Zrotation Xrotation Yrotation
                JOINT lRing2
                {
                  OFFSET 2.60934 -0.819778 -0.0198488
                  CHANNELS 3 Zrotation Xrotation Yrotation
                  End Site
                  {
                    OFFSET 2.33842 -0.294052 0.168128
                  }
                }
              }
              JOINT lPinky1
              {
                OFFSET 8.27202 -0.0477905 -0.4584
                CHANNELS 3 Zrotation Xrotation Yrotation
                JOINT lPinky2
                {
                  OFFSET 1.82734 -0.647385 -0.700984
                  CHANNELS 3 Zrotation Xrotation Yrotation
                  End Site
                  {
                    OFFSET 1.69225 -0.51767 -0.607171
                  }
                }
              }
            }
          }
        }
      }
    }
  }
  JOINT rButtock
  {
    OFFSET -8.77824 4.35084 1.2192
    CHANNELS 3 Zrotation Xrotation Yrotation
    JOINT rThigh
    {
      OFFSET 0 -1.70687 -2.19456
      CHANNELS 3 Zrotation Xrotation Yrotation
      JOINT rShin
      {
        OFFSET 0 -36.8199 0.73152
        CHANNELS 3 Zrotation Xrotation Yrotation
        JOINT rFoot
        {
          OFFSET 0.73152 -45.1104 -5.12064
          CHANNELS 3 Zrotation Xrotation Yrotation
          End Site
          {
            OFFSET -1.1221 -3.69964 12.103
          }
        }
      }
    }
  }
  JOINT lButtock
  {
    OFFSET 8.77824 4.35084 1.2192
    CHANNELS 3 Zrotation Xrotation Yrotation
    JOINT lThigh
    {
      OFFSET 0 -1.70687 -2.19456
      CHANNELS 3 Zrotation Xrotation Yrotation
      JOINT lShin
      {
        OFFSET 0 -36.8199 0.73152
        CHANNELS 3 Zrotation Xrotation Yrotation
        JOINT lFoot
        {
          OFFSET -0.73152 -45.1104 -5.12064
          CHANNELS 3 Zrotation Xrotation Yrotation
          End Site
          {
            OFFSET 1.1221 -3.69964 12.103
          }
        }
      }
    }
  }
}
MOTION
Frames:	5
Frame Time:	0.00833333
9.70979 85.0114 -150.389 0.0 0.0 0.0 0.0256062 -6.19144e-06 0.000728834 0.00706473 8.63186e-06 0.00122381 -5.97382e-16 -7.95139e-16 -1.16475e-18 -1.79217e-15 3.18055e-15 -6.21202e-18 -0.0 0.0 0.0 -0.0 0.0 0.0 -2.49816e-16 0.0 1.98785e-16 -4.40753e-15 2.36057e-16 7.95139e-16 -1.11021e-13 3.06128e-14 3.18055e-15 -1.23297e-12 -3.85891e-14 -1.90833e-14 -2.91729e-12 -2.19147e-14 -1.27222e-14 -5.04595e-12 -3.49861e-14 -2.62396e-14 -2.911e-12 -2.06736e-14 -2.22639e-14 7.73091 5.47488 0.417314 -2.91781e-12 -2.20651e-14 -6.36111e-15 2.90554 0.965183 0.102902 -2.91188e-12 -2.15681e-14 -1.27222e-14 10.2786 0.731801 0.0259123 -2.92134e-12 -1.98785e-14 -3.18055e-15 2.22167 -0.733487 -0.20892 -3.46558e-16 0.0 -1.98785e-16 -8.32168e-15 5.59082e-17 -7.95139e-16 -1.05058e-13 -3.29983e-14 -1.90833e-14 -1.24044e-12 2.7159e-14 1.90833e-14 -2.91593e-12 -1.79394e-14 -9.54166e-15 -5.02528e-12 -3.18055e-14 -1.59028e-14 -2.92213e-12 -1.63003e-14 0.0 -7.73091 5.47488 -0.417314 -2.91612e-12 -1.78906e-14 -1.27222e-14 -2.90554 0.965183 -0.102902 -2.92294e-12 -1.74931e-14 -1.11319e-14 -10.2786 0.731801 -0.0259123 -2.91319e-12 -1.70955e-14 -2.22639e-14 -2.22167 -0.733487 0.20892 -2.03217e-16 0.0 -3.88251e-19 0.512305 -3.13364 -0.0420887 -0.00562806 0.123099 -0.0495528 -0.492805 3.00963 0.117361 2.03217e-16 0.0 3.88251e-19 -0.473319 -3.03453 0.0397103 0.00592194 -0.0564345 0.0521746 0.492499 3.09005 -0.118955
10.121 83.2673 -151.229 2.939 -3.8693 0.0479 -0.962745 1.99618 0.657554 0.63615 -0.709044 0.141576 -2.35064 0.306238 -0.746179 2.26326 -1.66607 -0.747762 -0.0 0.0 0.0 -0.0 0.0 0.0 5.22678e-14 -8.49234e-15 -4.6695e-15 21.7669 3.55356 0.79076 -4.3226 -1.98485 6.72887 0.0136836 2.59938 0.36397 -2.69661e-10 7.90236e-11 -1.25352e-10 -4.6648e-10 1.36261e-10 -2.14434e-10 -2.69656e-10 7.90245e-11 -1.25365e-10 7.73091 5.47488 0.417314 -2.69662e-10 7.9024e-11 -1.25347e-10 2.90554 0.965183 0.102902 -2.69655e-10 7.90245e-11 -1.25354e-10 10.2786 0.731801 0.0259123 -2.69664e-10 7.9026e-11 -1.25347e-10 2.22167 -0.733487 -0.20892 5.21807e-14 -8.49144e-15 -5.04106e-15 -22.5935 4.13969 -0.698301 3.10312 -1.24308 -5.01295 -0.035415 4.17705 -0.581428 -2.29529e-10 -3.24073e-10 -3.01361e-10 -3.99753e-10 -5.61405e-10 -5.16997e-10 -2.29534e-10 -3.24071e-10 -3.01352e-10 -7.73091 5.47488 -0.417314 -2.29532e-10 -3.24075e-10 -3.01365e-10 -2.90554 0.965183 -0.102902 -2.29536e-10 -3.24072e-10 -3.01359e-10 -10.2786 0.731801 -0.0259123 -2.29526e-10 -3.24072e-10 -3.01369e-10 -2.22167 -0.733487 0.20892 -2.03217e-16 0.0 -3.88251e-19 -0.775109 -7.67883 -0.642958 -0.0514858 17.9893 0.171663 -0.503955 5.20228 -1.93163 2.03217e-16 0.0 3.88251e-19 -2.25372 -7.08357 0.207995 0.0235941 6.70502 0.044649 0.500703 1.01826 -0.0264504
10.1919 83.2563 -150.418 3.0574 -3.8573 -0.0709 -2.05398 4.09979 1.36756 1.29714 -1.45325 0.293349 -4.82914 0.625363 -1.53619 4.62568 -3.43026 -1.54019 -0.0 0.0 0.0 -0.0 0.0 0.0 1.09538e-13 -1.85378e-14 -8.50115e-15 44.6685 7.32643 1.64943 -8.39532 -3.99636 13.8778 -0.00788244 5.33001 0.748863 -5.66719e-10 1.71016e-10 -2.48535e-10 -9.80227e-10 2.94798e-10 -4.24848e-10 -5.66716e-10 1.71016e-10 -2.48553e-10 7.73091 5.47488 0.417314 -5.66722e-10 1.71017e-10 -2.48533e-10 2.90554 0.965183 0.102902 -5.66714e-10 1.71017e-10 -2.4854e-10 10.2786 0.731801 0.0259123 -5.6672e-10 1.71019e-10 -2.48536e-10 2.22167 -0.733487 -0.20892 1.09461e-13 -1.85358e-14 -8.84592e-15 -46.3722 8.50688 -1.4374 6.14882 -2.52594 -10.3212 0.0203214 8.59975 -1.20762 -4.73054e-10 -6.87952e-10 -6.29784e-10 -8.2394e-10 -1.19175e-09 -1.08043e-09 -4.73057e-10 -6.87949e-10 -6.29777e-10 -7.73091 5.47488 -0.417314 -4.7306e-10 -6.87955e-10 -6.2979e-10 -2.90554 0.965183 -0.102902 -4.7306e-10 -6.87951e-10 -6.29779e-10 -10.2786 0.731801 -0.0259123 -4.7305e-10 -6.8795e-10 -6.29787e-10 -2.22167 -0.733487 0.20892 -2.03217e-16 0.0 -3.88251e-19 -2.22907 -12.4144 -1.27831 -0.282405 36.8513 0.484419 -0.339138 7.57107 -4.10282 2.03217e-16 0.0 3.88251e-19 -4.09791 -11.3862 0.396268 0.0445446 13.8269 0.0391531 0.515035 -1.13364 0.0529321
10.2374 83.2302 -149.648 3.0105 -3.7015 -0.0796 -3.07736 5.98539 1.98081 1.90475 -2.1271 0.422538 -7.02799 0.918091 -2.23879 6.65893 -4.99479 -2.25089 -0.0 0.0 0.0 -0.0 0.0 0.0 1.57303e-13 -2.5477e-14 -1.44061e-14 65.0021 10.6525 2.40926 -11.5957 -5.62673 20.2764 -0.0588046 7.79687 1.10096 -8.03148e-10 2.37115e-10 -3.76029e-10 -1.38935e-09 4.08852e-10 -6.43251e-10 -8.03147e-10 2.37115e-10 -3.7605e-10 7.73091 5.47488 0.417314 -8.03152e-10 2.37116e-10 -3.76028e-10 2.90554 0.965183 0.102902 -8.03142e-10 2.37116e-10 -3.76036e-10 10.2786 0.731801 0.0259123 -8.03148e-10 2.37118e-10 -3.76034e-10 2.22167 -0.733487 -0.20892 1.57235e-13 -2.54743e-14 -1.47256e-14 -67.4718 12.4116 -2.13946 8.66402 -3.61522 -15.066 0.153318 12.5259 -1.78208 -6.82756e-10 -9.72184e-10 -9.04063e-10 -1.18921e-09 -1.68415e-09 -1.55096e-09 -6.82758e-10 -9.72181e-10 -9.04057e-10 -7.73091 5.47488 -0.417314 -6.82765e-10 -9.72188e-10 -9.0407e-10 -2.90554 0.965183 -0.102902 -6.82761e-10 -9.72182e-10 -9.04055e-10 -10.2786 0.731801 -0.0259123 -6.82751e-10 -9.72182e-10 -9.04062e-10 -2.22167 -0.733487 0.20892 -2.03217e-16 0.0 -3.88251e-19 -3.64742 -16.7619 -1.90865 -0.786232 53.7178 0.995228 -0.0508264 9.54323 -6.08999 2.03217e-16 0.0 3.88251e-19 -5.74076 -15.1811 0.559435 0.064112 20.2279 0.0305669 0.537163 -3.12533 0.158461
10.2963 83.151 -148.903 3.0013 -3.5258 -0.0447 -3.82978 7.32922 2.34273 2.37125 -2.62507 0.495013 -8.54413 1.14541 -2.72264 7.96218 -6.06345 -2.74995 -0.0 0.0 0.0 -0.0 0.0 0.0 1.81304e-13 -2.46509e-14 -2.54941e-14 79.1384 12.87 2.88459 -13.5799 -6.62038 24.7124 -0.114516 9.60549 1.36288 -8.88004e-10 2.38481e-10 -5.14299e-10 -1.53691e-09 4.11697e-10 -8.81624e-10 -8.88003e-10 2.38481e-10 -5.14321e-10 7.73091 5.47488 0.417314 -8.88008e-10 2.38483e-10 -5.14299e-10 2.90554 0.965183 0.102902 -8.87998e-10 2.38483e-10 -5.14307e-10 10.2786 0.731801 0.0259123 -8.88003e-10 2.38484e-10 -5.14305e-10 2.22167 -0.733487 -0.20892 1.81241e-13 -2.46481e-14 -2.57923e-14 -82.0851 15.1666 -2.70856 10.3059 -4.32937 -18.3764 0.292648 15.2159 -2.19072 -8.07901e-10 -1.0573e-09 -1.04298e-09 -1.40717e-09 -1.8317e-09 -1.78921e-09 -8.07902e-10 -1.05729e-09 -1.04297e-09 -7.73091 5.47488 -0.417314 -8.0791e-10 -1.0573e-09 -1.04299e-09 -2.90554 0.965183 -0.102902 -8.07906e-10 -1.0573e-09 -1.04297e-09 -10.2786 0.731801 -0.0259123 -8.07896e-10 -1.0573e-09 -1.04298e-09 -2.22167 -0.733487 0.20892 -2.03217e-16 0.0 -3.88251e-19 -4.78715 -20.1445 -2.47804 -1.58769 65.598 1.77338 0.190819 10.5645 -7.5604 2.03217e-16 0.0 3.88251e-19 -6.93795 -17.7072 0.645389 0.0792047 24.827 0.0130187 0.572101 -4.71645 0.329482
